# xmcd
#
# Track frame offsets:
#	150
#	13822
#	26557
#	42300
#	55192
#	73740
#	86922
#	107492
#	122805
#	139992
#	157005
#	172145
#	187645
#	201367
#	209275
#	220390
#
# Disc length: 3209 seconds
#
# Revision: 1
# Processed by: cddbd v1.5.2PL0 Copyright (c) Steve Scherf et al.
# Submitted via: audiograbber 1.83.01
#
DISCID=f10c8710
DTITLE=Piet Schmit - Steps to the bright side
DYEAR=2000
DGENRE=
TTITLE0=In a cafe
TTITLE1=Englishman in New York
TTITLE2=Davys on the road again
TTITLE3=Straight from the heart
TTITLE4=Steps to the bright side
TTITLE5=Classical Gas
TTITLE6=Albatross
TTITLE7=Just a Gigolo
TTITLE8=Easy going
TTITLE9=Powerline Boogie
TTITLE10=I know him so well
TTITLE11=Travelling Hermann
TTITLE12=Black or White
TTITLE13=Traffic Confusion
TTITLE14=Rap Crap
TTITLE15=Woman from Tokyo
EXTD=
EXTT0=
EXTT1=
EXTT2=
EXTT3=
EXTT4=
EXTT5=
EXTT6=
EXTT7=
EXTT8=
EXTT9=
EXTT10=
EXTT11=
EXTT12=
EXTT13=
EXTT14=
EXTT15=
PLAYORDER=
